<svg width="65" height="66" viewBox="0 0 65 66" fill="none" xmlns="http://www.w3.org/2000/svg">
<path d="M9.49592 60.7896L10.6715 58.8712L10.6715 58.8712L9.49592 60.7896ZM4.5438 55.8375L6.46224 54.6619L6.46224 54.6619L4.5438 55.8375ZM60.123 55.8375L58.2046 54.6619L58.2046 54.6619L60.123 55.8375ZM55.1709 60.7896L53.9953 58.8712L53.9953 58.8712L55.1709 60.7896ZM55.1709 14.2104L53.9953 16.1288L53.9953 16.1288L55.1709 14.2104ZM60.123 19.1625L58.2046 20.3381L58.2046 20.3381L60.123 19.1625ZM9.49592 14.2104L10.6715 16.1288L10.6715 16.1288L9.49592 14.2104ZM4.5438 19.1625L6.46224 20.3381L6.46224 20.3381L4.5438 19.1625ZM51.7637 4.63935L53.3875 3.08183L53.3875 3.08183L51.7637 4.63935ZM7.86606 5.67237L9.22459 7.46594L9.22459 7.46594L7.86606 5.67237ZM4.89673 8.768L6.74269 10.0544L4.89673 8.768ZM53.3334 12.391L55.5834 12.391L55.5834 12.3799L53.3334 12.391ZM51.4243 37.841C52.6669 37.841 53.6743 36.8336 53.6743 35.591C53.6743 34.3483 52.6669 33.341 51.4243 33.341V37.841ZM43.2425 33.341C41.9999 33.341 40.9925 34.3483 40.9925 35.591C40.9925 36.8336 41.9999 37.841 43.2425 37.841V33.341ZM27.8334 14.25H36.8334V9.75H27.8334V14.25ZM36.8334 60.75H27.8334V65.25H36.8334V60.75ZM27.8334 60.75C22.8797 60.75 19.3224 60.7476 16.5477 60.4838C13.8064 60.2232 12.0621 59.7233 10.6715 58.8712L8.3203 62.708C10.5368 64.0663 13.0511 64.6716 16.1217 64.9636C19.1589 65.2524 22.9668 65.25 27.8334 65.25V60.75ZM0.0833981 37.5C0.0833981 42.3666 0.0810243 46.1745 0.3698 49.2117C0.661759 52.2823 1.2671 54.7966 2.62536 57.0131L6.46224 54.6619C5.61009 53.2713 5.11024 51.527 4.8496 48.7857C4.58577 46.011 4.5834 42.4537 4.5834 37.5H0.0833981ZM10.6715 58.8712C8.95596 57.8199 7.51355 56.3774 6.46224 54.6619L2.62536 57.0131C4.04772 59.3342 5.99922 61.2857 8.3203 62.708L10.6715 58.8712ZM36.8334 65.25C41.7 65.25 45.5079 65.2524 48.5451 64.9636C51.6157 64.6716 54.13 64.0663 56.3465 62.708L53.9953 58.8712C52.6047 59.7233 50.8604 60.2232 48.1191 60.4838C45.3444 60.7476 41.7871 60.75 36.8334 60.75V65.25ZM58.2046 54.6619C57.1533 56.3774 55.7108 57.8199 53.9953 58.8712L56.3465 62.708C58.6676 61.2857 60.6191 59.3342 62.0414 57.0131L58.2046 54.6619ZM53.9953 16.1288C55.7108 17.1801 57.1533 18.6226 58.2046 20.3381L62.0414 17.9869C60.6191 15.6658 58.6676 13.7143 56.3465 12.292L53.9953 16.1288ZM27.8334 9.75C22.9668 9.75 19.1589 9.74763 16.1217 10.0364C13.0511 10.3284 10.5368 10.9337 8.3203 12.292L10.6715 16.1288C12.0621 15.2767 13.8064 14.7768 16.5477 14.5162C19.3224 14.2524 22.8797 14.25 27.8334 14.25V9.75ZM4.5834 37.5C4.5834 32.5463 4.58577 28.989 4.8496 26.2143C5.11024 23.473 5.61009 21.7287 6.46224 20.3381L2.62536 17.9869C1.2671 20.2034 0.661759 22.7177 0.3698 25.7883C0.0810243 28.8255 0.0833981 32.6334 0.0833981 37.5H4.5834ZM8.3203 12.292C5.99922 13.7143 4.04772 15.6658 2.62536 17.9869L6.46224 20.3381C7.51355 18.6226 8.95596 17.1801 10.6715 16.1288L8.3203 12.292ZM26.4926 5.25H42.5988V0.75H26.4926V5.25ZM42.5988 5.25C45.1958 5.25 46.9078 5.25519 48.1774 5.43314C49.3723 5.60062 49.8371 5.88116 50.14 6.19687L53.3875 3.08183C52.1179 1.75819 50.5311 1.21905 48.802 0.9767C47.1477 0.744815 45.0634 0.75 42.5988 0.75V5.25ZM26.4926 0.75C21.512 0.75 17.5882 0.746647 14.4752 1.09826C11.3144 1.45529 8.72246 2.2011 6.50752 3.8788L9.22459 7.46594C10.5378 6.47127 12.2263 5.8809 14.9803 5.56983C17.7822 5.25335 21.4076 5.25 26.4926 5.25V0.75ZM4.5834 28.1869C4.5834 22.8919 4.58624 19.0941 4.89176 16.1542C5.19346 13.2511 5.76988 11.4504 6.74269 10.0544L3.05077 7.48156C1.46025 9.76385 0.755008 12.4256 0.415867 15.689C0.0805539 18.9156 0.0833981 22.9881 0.0833981 28.1869H4.5834ZM6.50752 3.8788C5.17757 4.88617 4.01173 6.10265 3.05077 7.48156L6.74269 10.0544C7.43743 9.05754 8.27566 8.1847 9.22459 7.46594L6.50752 3.8788ZM55.5834 12.3799C55.5733 10.3499 55.5301 8.59074 55.2758 7.1324C55.0116 5.61683 54.4896 4.23076 53.3875 3.08183L50.14 6.19687C50.42 6.48885 50.6726 6.92964 50.8427 7.90518C51.0227 8.93795 51.0732 10.3342 51.0834 12.4021L55.5834 12.3799ZM0.0833981 28.1869C0.0833981 31.1139 0.022917 33.7926 0.0841692 36.0607L4.58253 35.9393C4.52326 33.7446 4.5834 31.2721 4.5834 28.1869H0.0833981ZM60.8333 41.5228H43.2425V46.0228H60.8333V41.5228ZM32.8107 35.591C32.8107 41.3523 37.4812 46.0228 43.2425 46.0228V41.5228C39.9664 41.5228 37.3107 38.867 37.3107 35.591H32.8107ZM37.3107 35.591C37.3107 32.3149 39.9664 29.6591 43.2425 29.6591V25.1591C37.4812 25.1591 32.8107 29.8296 32.8107 35.591H37.3107ZM51.4243 33.341H43.2425V37.841H51.4243V33.341ZM36.8334 14.25C40.9873 14.25 44.1681 14.251 46.7439 14.4099C49.3173 14.5687 51.1164 14.8783 52.5346 15.4169L54.1322 11.21C52.092 10.4352 49.7691 10.088 47.0211 9.91845C44.2755 9.74903 40.9355 9.75 36.8334 9.75V14.25ZM52.5346 15.4169C53.0657 15.6186 53.5464 15.8538 53.9953 16.1288L56.3465 12.292C55.6462 11.8628 54.9116 11.506 54.1322 11.21L52.5346 15.4169ZM51.0834 12.391V13.3134H55.5834V12.391H51.0834ZM43.2425 29.6591H62.1666V25.1591H43.2425V29.6591ZM64.5834 37.5C64.5834 33.3766 64.5844 30.0231 64.4122 27.2688L59.921 27.5495C60.0824 30.1318 60.0834 33.3241 60.0834 37.5H64.5834ZM64.4122 27.2688C64.177 23.5043 63.6075 20.5425 62.0414 17.9869L58.2046 20.3381C59.1913 21.9483 59.7005 24.0212 59.921 27.5495L64.4122 27.2688ZM60.0834 37.5C60.0834 39.8626 60.0833 41.9166 60.0531 43.7354L64.5525 43.8101C64.5835 41.9464 64.5834 39.8518 64.5834 37.5H60.0834ZM60.0531 43.7354C59.9556 49.6111 59.5237 52.5093 58.2046 54.6619L62.0414 57.0131C64.082 53.6832 64.4565 49.5938 64.5525 43.8101L60.0531 43.7354ZM60.8333 46.0228H62.3028V41.5228H60.8333V46.0228Z" fill="#8694B5"/>
</svg>
