<svg width="59" height="60" viewBox="0 0 59 60" fill="none" xmlns="http://www.w3.org/2000/svg">
<path fill-rule="evenodd" clip-rule="evenodd" d="M31.9167 9C31.9167 7.75736 30.9093 6.75 29.6667 6.75C28.424 6.75 27.4167 7.75736 27.4167 9V9.92422C26.4364 10.1701 25.4744 10.5544 24.5585 11.0832C16.3929 15.7976 17.4308 27.8967 26.28 31.1516L27.4168 31.5698L27.4167 45.6584C25.812 45.2058 24.3783 44.151 23.4807 42.5963L22.354 40.6448C21.7326 39.5686 20.3566 39.1999 19.2804 39.8212C18.2042 40.4425 17.8355 41.8186 18.4568 42.8948L19.5835 44.8463C21.3189 47.8521 24.2446 49.7389 27.4167 50.2605L27.4167 51C27.4167 52.2426 28.424 53.25 29.6667 53.25C30.9093 53.25 31.9167 52.2427 31.9167 51L31.9167 50.0759C32.8971 49.8299 33.8591 49.4457 34.7751 48.9168C42.9407 44.2024 41.9029 32.1033 33.0537 28.8484L31.9168 28.4302L31.9167 14.3416C33.5215 14.7941 34.9553 15.8489 35.853 17.4037L36.9797 19.3552C37.601 20.4314 38.9771 20.8001 40.0532 20.1788C41.1294 19.5575 41.4981 18.1814 40.8768 17.1052L39.7501 15.1537C38.0146 12.1478 35.0888 10.261 31.9167 9.7395V9ZM26.8085 14.9803C27.0082 14.865 27.2112 14.7613 27.4167 14.6691L27.4168 26.76C22.5356 24.6046 22.0783 17.7113 26.8085 14.9803ZM31.9167 45.331L31.9168 33.24C36.7981 35.3953 37.2554 42.2887 32.5251 45.0197C32.3253 45.1351 32.1223 45.2388 31.9167 45.331Z" fill="#8694B5"/>
<path fill-rule="evenodd" clip-rule="evenodd" d="M43.0572 1.12118C39.6308 0.749956 35.312 0.749976 29.8024 0.75H29.5309C24.0213 0.749976 19.7025 0.749956 16.2761 1.12118C12.7795 1.50002 9.94635 2.28697 7.52738 4.04446C6.06294 5.10843 4.7751 6.39627 3.71113 7.86071C1.95364 10.2797 1.16669 13.1128 0.787856 16.6094C0.416628 20.0358 0.416648 24.3546 0.416672 29.8643V30.1357C0.416648 35.6454 0.416628 39.9642 0.787856 43.3906C1.16669 46.8872 1.95364 49.7203 3.71113 52.1393C4.7751 53.6037 6.06294 54.8916 7.52738 55.9555C9.94635 57.713 12.7795 58.5 16.2761 58.8788C19.7024 59.25 24.0212 59.25 29.5306 59.25H29.8025C35.312 59.25 39.6309 59.25 43.0572 58.8788C46.5539 58.5 49.387 57.713 51.806 55.9555C53.2704 54.8916 54.5582 53.6037 55.6222 52.1393C57.3797 49.7203 58.1667 46.8872 58.5455 43.3906C58.9167 39.9642 58.9167 35.6455 58.9167 30.136V29.8642C58.9167 24.3547 58.9167 20.0358 58.5455 16.6094C58.1667 13.1128 57.3797 10.2797 55.6222 7.86071C54.5582 6.39627 53.2704 5.10843 51.806 4.04446C49.387 2.28697 46.5539 1.50002 43.0572 1.12118ZM10.1724 7.68503C11.6964 6.57778 13.6471 5.93236 16.7608 5.595C19.9166 5.25309 23.992 5.25 29.6667 5.25C35.3414 5.25 39.4167 5.25309 42.5725 5.595C45.6863 5.93236 47.6369 6.57777 49.1609 7.68503C50.2433 8.47145 51.1952 9.42333 51.9816 10.5057C53.0889 12.0298 53.7343 13.9804 54.0717 17.0941C54.4136 20.25 54.4167 24.3253 54.4167 30C54.4167 35.6747 54.4136 39.75 54.0717 42.9059C53.7343 46.0196 53.0889 47.9702 51.9816 49.4943C51.1952 50.5767 50.2433 51.5286 49.1609 52.315C47.6369 53.4222 45.6863 54.0676 42.5725 54.405C39.4167 54.7469 35.3414 54.75 29.6667 54.75C23.992 54.75 19.9166 54.7469 16.7608 54.405C13.6471 54.0676 11.6964 53.4222 10.1724 52.315C9.09001 51.5286 8.13812 50.5767 7.35171 49.4943C6.24445 47.9702 5.59903 46.0196 5.26168 42.9059C4.91976 39.75 4.91667 35.6747 4.91667 30C4.91667 24.3253 4.91976 20.25 5.26168 17.0941C5.59903 13.9804 6.24445 12.0298 7.35171 10.5057C8.13812 9.42333 9.09 8.47145 10.1724 7.68503Z" fill="#8694B5"/>
</svg>
