<svg width="37" height="36" viewBox="0 0 37 36" fill="none" xmlns="http://www.w3.org/2000/svg">
<path d="M33.6208 0.501099H3.37034C1.92594 0.501099 0.75 1.64708 0.75 3.05821V33.4373C0.75 34.8518 1.92594 36 3.37034 36H33.623C35.0707 36 36.25 34.8518 36.25 33.4373V3.05821C36.25 1.64708 35.0707 0.501099 33.6208 0.501099Z" fill="#005CFF"/>
<path d="M6.01396 13.809H11.289V30.7492H6.01396V13.809ZM8.64761 5.37775C10.3305 5.37775 11.6984 6.74561 11.6984 8.42853C11.6984 10.1115 10.3305 11.4826 8.64872 11.4826C7.83916 11.4809 7.06324 11.1586 6.49069 10.5862C5.91814 10.0139 5.59556 9.23809 5.59351 8.42853C5.59351 8.02762 5.67253 7.63063 5.82605 7.26028C5.97957 6.88992 6.20459 6.55346 6.48824 6.27012C6.77188 5.98679 7.10859 5.76214 7.47911 5.60902C7.84963 5.4559 8.2467 5.37731 8.64761 5.37775ZM14.5828 13.809H19.6326V16.1243H19.7025C20.4059 14.793 22.1232 13.3885 24.6947 13.3885C30.0264 13.3885 31.0104 16.8975 31.0104 21.4581V30.7503H25.7486V22.5098C25.7486 20.5462 25.7131 18.0169 23.0129 18.0169C20.2728 18.0169 19.8512 20.158 19.8512 22.3656V30.7458H14.5905V13.8057L14.5828 13.809Z" fill="white"/>
</svg>
