<svg width="43" height="35" viewBox="0 0 43 35" fill="none" xmlns="http://www.w3.org/2000/svg">
<path d="M13.5227 35C29.7491 35 38.6242 21.5331 38.6242 9.85488C38.6242 9.47225 38.6242 9.09148 38.5985 8.71071C40.325 7.46023 41.8154 5.91186 43 4.13807C41.3899 4.85279 39.6818 5.32151 37.9329 5.52858C39.7745 4.42415 41.1529 2.68707 41.8115 0.640621C40.0797 1.66999 38.185 2.39541 36.2094 2.7856C34.8792 1.3688 33.12 0.430648 31.204 0.116307C29.2879 -0.198034 27.3219 0.128965 25.61 1.0467C23.8982 1.96444 22.536 3.42175 21.7343 5.19313C20.9326 6.9645 20.736 8.95119 21.175 10.8458C17.6675 10.6696 14.2361 9.7565 11.1037 8.16575C7.97136 6.575 5.20793 4.34215 2.99287 1.61215C1.8647 3.55766 1.51915 5.86074 2.02656 8.05249C2.53398 10.2442 3.8562 12.1599 5.72404 13.4094C4.32012 13.3677 2.94681 12.9883 1.72 12.3032V12.4151C1.72054 14.4555 2.42563 16.4329 3.71568 18.0119C5.00573 19.591 6.80132 20.6743 8.79787 21.0783C7.49903 21.4332 6.13629 21.485 4.81432 21.2299C5.37805 22.986 6.47559 24.5216 7.95342 25.622C9.43126 26.7224 11.2155 27.3326 13.0565 27.3672C9.93256 29.8267 6.07343 31.1618 2.10011 31.1578C1.39819 31.1564 0.696948 31.1138 0 31.0302C4.0345 33.6238 8.72886 34.9995 13.5227 34.9931" fill="#005CFF"/>
</svg>
