<svg width="276" height="121" viewBox="0 0 276 121" fill="none" xmlns="http://www.w3.org/2000/svg">
<rect x="0.681641" y="0.173126" width="274.681" height="120.173" rx="17.1676" fill="white"/>
<g clip-path="url(#clip0_138_4774)">
<path fill-rule="evenodd" clip-rule="evenodd" d="M119.448 41.9244L100.927 60.2597C104.631 63.9272 108.863 67.018 113.477 69.4361C114.753 72.7851 116.752 75.9258 119.475 78.6212C129.718 88.7619 146.327 88.7619 156.57 78.6212C159.293 75.9258 161.292 72.7851 162.568 69.4359C167.182 67.018 171.414 63.9272 175.118 60.2597L156.612 41.9393C156.598 41.9256 156.584 41.9119 156.57 41.8982C146.327 31.7575 129.718 31.7575 119.475 41.8982C119.466 41.907 119.457 41.9157 119.448 41.9244ZM154.798 72.7441C149.401 74.5473 143.735 75.4708 138.023 75.4708C132.31 75.4708 126.645 74.5473 121.247 72.7441C121.832 73.5122 122.478 74.2493 123.184 74.9489C131.379 83.0616 144.666 83.0616 152.861 74.9489C153.567 74.2493 154.213 73.5122 154.798 72.7441ZM123.565 45.2033C124.956 46.1135 126.436 46.8923 127.984 47.5273C131.167 48.8322 134.578 49.5039 138.023 49.5039C141.467 49.5039 144.878 48.8322 148.061 47.5273C149.609 46.8923 151.089 46.1134 152.481 45.2033C144.388 37.5804 131.657 37.5804 123.565 45.2033Z" fill="#0A0F1C"/>
</g>
<defs>
<clipPath id="clip0_138_4774">
<rect width="74.1915" height="51.9341" fill="white" transform="translate(100.927 34.2927)"/>
</clipPath>
</defs>
</svg>
