<svg width="275" height="121" viewBox="0 0 275 121" fill="none" xmlns="http://www.w3.org/2000/svg">
<rect y="0.173126" width="274.681" height="120.173" rx="17.1676" fill="white"/>
<g clip-path="url(#clip0_138_4765)">
<path fill-rule="evenodd" clip-rule="evenodd" d="M73.4041 45.2382V77.4274H64.8076V45.2382H73.4041Z" fill="#0A0F1C"/>
<path fill-rule="evenodd" clip-rule="evenodd" d="M77.7026 45.2382H95.9702C101.905 45.2382 106.716 50.0421 106.716 55.9679C106.716 61.8938 101.905 66.6977 95.9702 66.6977H86.2991V77.4274H77.7026V45.2382ZM86.2991 58.1139H95.9702C97.1572 58.1139 98.1194 57.1531 98.1194 55.9679C98.1194 54.7828 97.1572 53.822 95.9702 53.822H86.2991V58.1139Z" fill="#0A0F1C"/>
<path fill-rule="evenodd" clip-rule="evenodd" d="M138.953 45.2382V61.8693C138.953 65.7211 142.08 68.8436 145.938 68.8436C149.795 68.8436 152.922 65.7211 152.922 61.8693V45.2382H161.519V61.8693C161.519 70.4618 154.543 77.4274 145.938 77.4274C137.332 77.4274 130.356 70.4618 130.356 61.8693V45.2382H138.953Z" fill="#0A0F1C"/>
<path fill-rule="evenodd" clip-rule="evenodd" d="M109.939 60.2598C109.939 51.9636 116.675 45.2382 124.983 45.2382H127.132V53.822H124.983C121.422 53.822 118.536 56.7043 118.536 60.2598V61.3328C118.536 70.2216 111.319 77.4274 102.417 77.4274H101.343V68.8436H102.417C106.572 68.8436 109.939 65.4809 109.939 61.3328V60.2598Z" fill="#0A0F1C"/>
<path d="M209.874 46.311C209.874 48.0888 208.431 49.5299 206.65 49.5299C204.87 49.5299 203.427 48.0888 203.427 46.311C203.427 44.5332 204.87 43.0921 206.65 43.0921C208.431 43.0921 209.874 44.5332 209.874 46.311Z" fill="#0A0F1C"/>
<path d="M170.749 77.4272L174.851 60.2751L177.901 70.5939C179.719 76.7483 188.45 76.7483 190.269 70.5939L193.318 60.2751L197.42 77.4272H206.258L199.808 50.4565C198.274 44.0426 189.222 43.8051 187.353 50.1298L184.085 61.1895L180.816 50.1298C178.947 43.8052 169.895 44.0426 168.361 50.4565L161.911 77.4272H170.749Z" fill="#0A0F1C"/>
</g>
<defs>
<clipPath id="clip0_138_4765">
<rect width="145.066" height="34.3352" fill="white" transform="translate(64.8076 43.0919)"/>
</clipPath>
</defs>
</svg>
