<svg width="275" height="121" viewBox="0 0 275 121" fill="none" xmlns="http://www.w3.org/2000/svg">
<rect width="274.681" height="120.173" rx="17.1676" fill="white"/>
<g clip-path="url(#clip0_138_4751)">
<path d="M60.0864 77.2541C69.5681 77.2541 77.254 69.5682 77.254 60.0865V48.0692C77.254 46.7033 76.7114 45.3933 75.7456 44.4274C74.7797 43.4615 73.4697 42.9189 72.1038 42.9189H60.9448V50.4503C60.9448 52.1688 61.0495 53.9491 61.9508 55.4118C62.5961 56.46 63.4592 57.3572 64.4818 58.0425C65.5043 58.7278 66.6623 59.1851 67.8771 59.3835L68.2059 59.4367C68.3414 59.483 68.459 59.5706 68.5424 59.6871C68.6257 59.8036 68.6705 59.9433 68.6705 60.0865C68.6705 60.2297 68.6257 60.3694 68.5424 60.4859C68.459 60.6024 68.3414 60.69 68.2059 60.7363L67.8771 60.7895C66.1021 61.0795 64.463 61.9196 63.1913 63.1914C61.9196 64.4631 61.0794 66.1022 60.7895 67.8772L60.7362 68.2059C60.6899 68.3415 60.6024 68.4591 60.4858 68.5424C60.3693 68.6257 60.2297 68.6705 60.0864 68.6705C59.9432 68.6705 59.8036 68.6257 59.687 68.5424C59.5705 68.4591 59.483 68.3415 59.4366 68.2059L59.3834 67.8772C59.185 66.6623 58.7277 65.5044 58.0424 64.4819C57.3571 63.4594 56.4599 62.5962 55.4117 61.9509C53.949 61.0496 52.1687 60.9449 50.4503 60.9449H42.9395C43.3884 70.0274 50.8932 77.2541 60.0864 77.2541Z" fill="#0A0F1C"/>
<path d="M42.9189 59.2282H50.4504C52.1688 59.2282 53.9491 59.1235 55.4118 58.2222C56.5552 57.5177 57.5177 56.5552 58.2221 55.4119C59.1234 53.9492 59.2282 52.1689 59.2282 50.4504V42.919H48.0692C46.7033 42.919 45.3933 43.4616 44.4274 44.4275C43.4616 45.3934 42.9189 46.7033 42.9189 48.0693V59.2282ZM82.795 44.6358C82.795 45.0911 82.6141 45.5277 82.2921 45.8497C81.9702 46.1717 81.5335 46.3525 81.0782 46.3525C80.6229 46.3525 80.1862 46.1717 79.8643 45.8497C79.5423 45.5277 79.3614 45.0911 79.3614 44.6358C79.3614 44.1805 79.5423 43.7438 79.8643 43.4218C80.1862 43.0999 80.6229 42.919 81.0782 42.919C81.5335 42.919 81.9702 43.0999 82.2921 43.4218C82.6141 43.7438 82.795 44.1805 82.795 44.6358ZM224.647 53.3088C229.447 53.3088 231.762 56.6608 231.762 60.5433V67.8352H226.74V61.4085C226.74 59.6488 226.098 58.1964 224.257 58.1964C222.416 58.1964 221.802 59.6488 221.802 61.4085V67.8343H216.779V61.4085C216.779 59.6488 216.166 58.1964 214.324 58.1964C212.482 58.1964 211.84 59.6488 211.84 61.4085V67.8343H206.819V60.5424C206.819 56.6599 209.134 53.308 213.933 53.308C216.556 53.308 218.453 54.3415 219.319 56.0453C220.239 54.3415 222.248 53.3071 224.647 53.3071V53.3088ZM197.794 63.3656C199.412 63.3656 200.11 61.8849 200.11 60.1244V53.8668H205.131V60.739C205.131 64.8455 202.732 68.2541 197.794 68.2541C192.855 68.2541 190.456 64.8463 190.456 60.739V53.8668H195.478V60.1244C195.478 61.884 196.175 63.3656 197.794 63.3656ZM183.071 68.2815C179.918 68.2815 177.881 67.1923 176.681 65.0695L180.309 63.03C180.811 63.9236 181.564 64.3708 182.819 64.3708C183.852 64.3708 184.326 64.0077 184.326 63.5605C184.326 61.8566 176.96 63.5888 176.96 58.1698C176.96 55.5432 179.192 53.4204 182.987 53.4204C186.307 53.4204 188.121 55.0402 188.93 56.605L185.303 58.672C184.996 57.8342 184.047 57.3312 183.098 57.3312C182.373 57.3312 181.982 57.6385 181.982 58.0574C181.982 59.7896 189.348 58.1973 189.348 63.4489C189.348 66.382 186.474 68.2815 183.071 68.2815ZM165.524 74.2602H160.501V60.8231C160.501 56.5484 163.71 53.4479 168.175 53.4479C172.527 53.4479 175.848 56.7724 175.848 60.8231C175.848 65.2927 172.89 68.2541 168.454 68.2541C167.421 68.2541 166.389 67.9468 165.524 67.4712V74.2602ZM168.175 63.533C169.765 63.533 170.825 62.3038 170.825 60.8506C170.825 59.3707 169.765 58.169 168.175 58.169C166.584 58.169 165.524 59.3707 165.524 60.8514C165.524 62.3038 166.584 63.533 168.175 63.533ZM155.471 52.3869C153.824 52.3869 152.458 51.0178 152.458 49.3697C152.458 47.7216 153.824 46.3525 155.471 46.3525C157.117 46.3525 158.484 47.7216 158.484 49.3697C158.484 51.0178 157.117 52.3869 155.471 52.3869ZM152.96 53.8668H157.982V67.8352H152.96V53.8668ZM143.324 68.2541C138.971 68.2541 135.651 64.9021 135.651 60.8231C135.651 56.7724 138.971 53.4204 143.324 53.4204C147.676 53.4204 150.997 56.7724 150.997 60.8231C150.997 64.9021 147.676 68.2541 143.324 68.2541ZM143.324 63.533C144.914 63.533 145.974 62.3038 145.974 60.8506C145.974 59.3707 144.914 58.1415 143.324 58.1415C141.733 58.1415 140.673 59.3707 140.673 60.8506C140.673 62.3038 141.733 63.533 143.324 63.533ZM126.167 74.679C122.708 74.679 120.196 73.1426 118.913 70.4043L123.07 68.17C123.516 69.1202 124.353 70.0979 126.083 70.0979C127.898 70.0979 129.097 68.9519 129.237 66.9408C128.567 67.5279 127.506 67.9742 125.917 67.9742C122.037 67.9742 118.912 64.9854 118.912 60.7948C118.912 56.7449 122.233 53.4479 126.586 53.4479C131.05 53.4479 134.259 56.5492 134.259 60.8231V66.3545C134.259 71.3829 130.771 74.679 126.167 74.679ZM126.502 63.254C128.008 63.254 129.153 62.2197 129.153 60.6832C129.153 59.175 128.009 58.169 126.502 58.169C125.023 58.169 123.851 59.175 123.851 60.684C123.851 62.2205 125.023 63.2532 126.502 63.2532V63.254ZM110.394 68.2541C106.041 68.2541 102.72 64.9021 102.72 60.8231C102.72 56.7724 106.041 53.4204 110.394 53.4204C114.746 53.4204 118.067 56.7724 118.067 60.8231C118.067 64.9021 114.746 68.2541 110.394 68.2541ZM110.394 63.533C111.984 63.533 113.044 62.3038 113.044 60.8506C113.044 59.3707 111.984 58.1415 110.394 58.1415C108.803 58.1415 107.743 59.3707 107.743 60.8506C107.743 62.3038 108.803 63.533 110.394 63.533ZM93.5745 48.9792V63.0858H101.89V67.8352H92.8766C89.6963 67.8352 88.4131 66.1588 88.4131 63.5047V48.9792H93.5745Z" fill="#0A0F1C"/>
</g>
<defs>
<clipPath id="clip0_138_4751">
<rect width="188.843" height="34.3352" fill="white" transform="translate(42.9189 42.919)"/>
</clipPath>
</defs>
</svg>
