<svg width="276" height="121" viewBox="0 0 276 121" fill="none" xmlns="http://www.w3.org/2000/svg">
<rect x="0.681641" width="274.681" height="120.173" rx="17.1676" fill="white"/>
<g clip-path="url(#clip0_138_4755)">
<path d="M195.954 50.7938C195.966 50.7043 195.966 50.6139 195.954 50.5244C195.965 50.4515 195.965 50.3771 195.954 50.3041L195.095 44.0108C194.972 43.2578 194.64 42.5541 194.139 41.9783L193.992 41.8069L193.722 41.5375L178.861 28.755L179.277 29.1713C178.936 28.7638 178.508 28.4379 178.025 28.2175C177.541 27.9972 177.013 27.8879 176.482 27.8979H171.969C171.236 27.8834 170.519 28.1164 169.934 28.5591C169.32 28.119 168.581 27.8873 167.825 27.8979H163.312C162.721 27.8884 162.137 28.035 161.62 28.3231C161.103 28.6112 160.672 29.0305 160.37 29.5386C159.904 30.2643 159.728 31.1386 159.879 31.9874L160.443 35.9543C160.07 35.7428 159.647 35.6331 159.217 35.636H137.366C136.582 35.6409 135.816 35.8704 135.159 36.2972C134.524 36.6944 134.013 37.2632 133.688 37.9378L131.996 36.4931C131.33 35.8778 130.45 35.5442 129.543 35.5626H95.2589C94.4721 35.5769 93.7029 35.7963 93.0273 36.1992C92.103 36.7394 91.4257 37.6177 91.1389 38.648L80.2503 75.012C80.0469 75.6112 80.0269 76.2574 80.1929 76.8681C80.3588 77.4785 80.7033 78.0261 81.1823 78.4404C81.3071 78.5459 81.4381 78.6441 81.5746 78.7341C81.5746 78.7341 81.3539 78.5871 81.2313 78.4648L96.0928 91.2718C96.7214 91.8497 97.5434 92.1728 98.3979 92.1777H132.952C133.741 92.1573 134.511 91.9293 135.184 91.5166C135.564 91.309 135.905 91.0354 136.189 90.7085L136.312 90.5371L136.508 90.2923L136.655 90.0228L138.274 91.4187C138.893 91.9737 139.697 92.279 140.53 92.2758H175.157C175.946 92.2495 176.714 92.022 177.389 91.6146C177.761 91.3943 178.1 91.1221 178.395 90.8065L178.517 90.6351L178.713 90.3903C178.818 90.2353 178.908 90.0715 178.983 89.9004C179.063 89.752 179.129 89.5962 179.179 89.4352L189.111 56.2301V55.9362C189.124 55.8223 189.124 55.7074 189.111 55.5934V55.3731C189.123 55.3 189.123 55.2256 189.111 55.1526C189.123 54.9977 189.123 54.8423 189.111 54.6873H192.3C192.577 54.7127 192.856 54.7127 193.133 54.6873H193.354C193.534 54.6338 193.706 54.5598 193.869 54.4669H194.114L194.556 54.1241L194.752 53.9772L195.095 53.5364V53.3896L195.341 52.9732C195.327 52.8922 195.327 52.8094 195.341 52.7284C195.328 52.6886 195.328 52.6457 195.341 52.6059C195.393 52.4624 195.434 52.3149 195.463 52.1651C195.452 52.1168 195.452 52.0664 195.463 52.0181C195.451 51.9452 195.451 51.8707 195.463 51.7978C195.463 51.7978 195.954 50.8428 195.954 50.7938Z" fill="#0A0F1C"/>
<path d="M130.549 38.3541C130.679 38.4717 130.77 38.6263 130.809 38.797C130.849 38.9678 130.835 39.1465 130.77 39.3092L119.906 75.6487C119.769 76.0454 119.489 76.3772 119.121 76.5793C118.821 76.7794 118.475 76.8975 118.115 76.9221H83.5857C83.2908 76.908 83.0115 76.786 82.8009 76.5793C82.6757 76.4636 82.5878 76.3133 82.5485 76.1476C82.5092 75.9819 82.5202 75.8082 82.5802 75.6487L93.4688 39.3092C93.5943 38.9074 93.8653 38.5668 94.229 38.3541C94.5335 38.1684 94.8785 38.0592 95.2345 38.0358H129.764C130.057 38.0386 130.337 38.1524 130.549 38.3541ZM112.524 68.3269L119.023 46.6309H100.826L94.3516 68.3269H112.524ZM163.509 38.7214C163.627 38.8581 163.774 38.9666 163.939 39.0386C164.105 39.1107 164.285 39.1446 164.465 39.1377H168.953C169.124 39.1394 169.292 39.0976 169.443 39.0162C169.593 38.9347 169.72 38.8164 169.811 38.6725C169.891 38.56 169.947 38.4327 169.977 38.2981C170.006 38.1635 170.008 38.0243 169.983 37.8889L169.1 31.4242C169.016 31.125 168.865 30.8487 168.659 30.6161C168.541 30.4794 168.394 30.3709 168.228 30.2989C168.063 30.2268 167.883 30.1929 167.702 30.1998H163.215C163.044 30.1981 162.875 30.24 162.725 30.3214C162.575 30.4028 162.448 30.5211 162.356 30.6651C162.184 31.0079 162.111 31.2283 162.184 31.4242L163.092 37.8889C163.138 38.2037 163.285 38.4953 163.509 38.7214ZM177.757 31.3752C177.673 31.076 177.522 30.7997 177.316 30.5671C177.203 30.4309 177.06 30.3225 176.898 30.2503C176.737 30.1781 176.561 30.1441 176.384 30.1508H171.871C171.703 30.146 171.537 30.1867 171.39 30.2686C171.243 30.3506 171.122 30.4706 171.038 30.6161C170.874 30.8333 170.804 31.1062 170.841 31.3752L171.749 37.8399C171.806 38.1514 171.95 38.4402 172.166 38.6725C172.286 38.8065 172.433 38.9131 172.598 38.9849C172.763 39.0568 172.942 39.0922 173.122 39.0887H177.634C177.802 39.091 177.967 39.0492 178.114 38.9675C178.26 38.8858 178.382 38.7672 178.468 38.6235C178.554 38.514 178.613 38.3867 178.643 38.2511C178.673 38.1155 178.672 37.975 178.64 37.8399L177.757 31.3752ZM159.56 41.1702L159.119 37.9868H137.366C137.025 38.0056 136.694 38.1156 136.41 38.3052C136.229 38.4035 136.072 38.5398 135.949 38.7047C135.827 38.8696 135.741 39.0591 135.699 39.2602L133.884 45.333C133.812 45.4848 133.787 45.6551 133.813 45.8212C133.839 45.9873 133.915 46.1415 134.031 46.2636C134.238 46.4577 134.508 46.5709 134.791 46.582H161.228L154.729 68.278H128.366C128.026 68.2857 127.695 68.3875 127.41 68.5717C127.063 68.7918 126.81 69.1318 126.699 69.5268L124.859 75.5998C124.799 75.7556 124.783 75.9249 124.814 76.0891C124.844 76.2534 124.919 76.406 125.031 76.5302C125.231 76.7373 125.503 76.86 125.791 76.873H160.419C160.777 76.8423 161.122 76.7246 161.424 76.5302C161.786 76.3271 162.058 75.9947 162.184 75.5998L172.141 42.3946H160.934C160.756 42.3981 160.579 42.3651 160.415 42.2977C160.25 42.2303 160.101 42.1299 159.977 42.0028C159.775 41.7807 159.631 41.5112 159.56 41.2192V41.1702Z" fill="white"/>
</g>
<defs>
<clipPath id="clip0_138_4755">
<rect width="115.881" height="64.3785" fill="white" transform="translate(80.0815 27.8973)"/>
</clipPath>
</defs>
</svg>
